<?xml version="1.0" encoding="utf-8"?>
<!-- Generator: Adobe Illustrator 23.0.6, SVG Export Plug-In . SVG Version: 6.00 Build 0)  -->
<svg version="1.1" id="图层_1" xmlns="http://www.w3.org/2000/svg" xmlns:xlink="http://www.w3.org/1999/xlink" x="0px" y="0px"
	 viewBox="660 250 644 250" style="enable-background:new 660 250 644 250;" xml:space="preserve">
<style type="text/css">
	.st0{fill-rule:evenodd;clip-rule:evenodd;fill:#FFFFFF;}
	.st1{fill-rule:evenodd;clip-rule:evenodd;fill:#2A47FC;}
	.st2{fill-rule:evenodd;clip-rule:evenodd;fill:#00D9DF;}
	.st3{fill:#2E343B;}
</style>
<rect x="628.1" y="215.9" class="st0" width="698.3" height="277.1"/>
<g id="编组" transform="translate(1314.000000, 295.000000)">
	<g id="编组-4">
		<path id="路径-12" class="st1" d="M-469,17.6h41.6c-29,43.1-56.2,88.9-55.9,115.3c0.1,9.3,3.6,13.4,11.6,18
			c-18.9-5.8-30.9-13.5-36-23s-5.4-20-0.7-31.4C-496.8,69-484.9,45.4-469,17.6z"/>
		<path id="路径-12备份" class="st1" d="M-437.5,69.2h31.2c-21.7,32.3-41.4,63.8-41.2,83.6c0.1,7,1.9,11.3,8,14.8
			c-15.5-1.7-25.2-6.2-29.1-13.3s-3.9-15.3,0-24.5C-459.1,109.3-449.4,90.1-437.5,69.2z"/>
		<path id="路径-13" class="st2" d="M-427.4,133.6h27.7c-10.6,21.9-23.3,31.2-37.1,34C-426.8,156.9-421.5,145.7-427.4,133.6z"/>
	</g>
	<g id="侠猫科技" transform="translate(145.960487, 24.699870)">
		<path id="形状" class="st3" d="M-491.2,17.6c-1.5,7.8-4.5,13.8-9.2,18h4.1v48.8h-10.3V39.6c-1.6,0.6-2.9,1-3.9,1.1l-1.2-2.6
			c4.9-6.3,8.4-13.2,10.3-20.5H-491.2z M-464.2,17.6V24h16.6v3.9h-16.6v18c0,2.3-0.2,4.5-0.5,6.4h19.7v3.9h-17.7
			c2.8,10.5,8.8,19,17.7,25.7l-1.2,2.5c-10.3-1.9-18-7.7-23.1-17.2c-5.2,9.6-12.9,15.3-23.2,17.2l-1.2-2.6
			c8.9-6.7,14.9-15.3,17.8-25.7h-17.8v-3.9h18.7c0.4-2.2,0.6-4.4,0.6-6.4v-18h-16.8V24h16.7v-6.4H-464.2z M-477.1,48.4h-10.3
			l-3.8-16.7h10.3L-477.1,48.4z M-461.7,48.4h10.3l3.8-16.7h-10.2L-461.7,48.4z"/>
		<path id="形状_00000159469388549878483340000012445219347666070176_" class="st3" d="M-412.2,17.6c-1,5.5-2.9,10.1-5.9,14
			c1.4,2.9,2.1,5.1,2.1,6.5v33.5c0,5.4-2.2,9.1-6.5,11.2c-2.1,1-4.3,1.5-6.5,1.5l-1.2-2.5c2.6-1.8,3.9-5.2,3.9-10.3v-6.6
			c-3.1,2.4-6.1,3.7-9,4l-1.2-2.6c6-6.8,9.4-13.7,10.3-20.5v-6.5c-3.4,2.1-6.4,3.4-9,3.9l-1.2-2.6c2.7-2.4,5.4-5.5,8.1-9.2
			c-2.1-4.1-4.4-8.3-7.1-12.6h10.3l2.1,3.4c0.7-1.5,1.3-3,1.8-4.7L-412.2,17.6L-412.2,17.6z M-396.8,17.6v7.7h10.3v-7.7h10.3v7.7
			h6.4v3.9h-6.4v8.9h-10.3v-8.9h-10.3v8.9h-10.3v-8.9h-6.4v-3.9h6.4v-7.7H-396.8z M-371.8,83.1h-39.9V40.7h39.9V83.1z M-401.4,60
			h4.5V44.6h-4.5V60z M-382,44.6h-4.5V60h4.5V44.6z M-401.4,79.2h4.5V63.8h-4.5V79.2z M-382,63.8h-4.5v15.4h4.5V63.8z"/>
		<path id="形状_00000088132147199675635420000004393326398303802523_" class="st3" d="M-360.9,24v-3.8h16c5.7,0,9.8-0.9,12.2-2.6
			v3.8c-1.2,1.4-4.3,2.2-9.2,2.5V33h9.8v3.8h-1.8l1.8,46.3h-6.1l-1.9-46.3h-1.8v47.5h-9.8V36.8h-1.8c0,17.7-1,30.9-2.9,39.7
			c-0.9,4.4-1.8,7.1-2.7,7.8l-2.4-1.2c1.2-10.7,1.8-26.1,1.8-46.3h-1.8V33h9.8v-9C-351.7,24-360.9,24-360.9,24z M-330.7,63.8h20.5
			V17.6h10.3v46.2h5.1v3.9h-5.1v16.6h-10.3V67.7h-20.5V63.8z M-311.5,38.1h-10.6l-7.7-18h10.7L-311.5,38.1z M-312.7,58.7h-10.6
			l-7.7-18h10.6L-312.7,58.7z"/>
		<path id="形状_00000017517166286252951710000014476906275021494450_" class="st3" d="M-269.7,17.6v11.6h6.5V33h-6.5v24.4h6.5
			v3.8h-6.5v10.4c0,5.4-2.1,9.1-6.4,11.2c-2.1,1-4.3,1.5-6.5,1.5l-1.3-2.5c2.6-1.8,3.9-5.2,3.9-10.3V61.2h-6.4v-3.8h6.4V33h-6.4
			v-3.8h6.4V17.6H-269.7z M-249.7,48.4c2,5.4,4.9,10.6,8.9,15.5c4.7-5.9,7.9-11.9,9.6-18.1h-29.5v-3.9h15.4V30.4h-15.4v-3.9h15.4
			v-8.9h10.3v8.9h15.3v3.9h-15.4v11.5h14.2v3.9c-2.2,10.1-6.7,18.5-13.4,25.2c5.1,4.7,10,8.3,14.7,10.9l-1.2,2.5
			c-6.5-0.7-13.2-3.4-19.9-8.1c-6.7,4.6-13.3,7.3-19.9,8.1l-1.3-2.5c4.8-2.6,9.8-6.2,14.7-10.9c-6.1-6.1-10.4-13.6-12.8-22.6
			C-260,48.4-249.7,48.4-249.7,48.4z"/>
	</g>
	<g id="ValiantCat-Tech" transform="translate(151.072266, 116.069336)">
		<polygon id="路径" class="st3" points="-507.5,21.6 -498.4,40.6 -490,21.6 -488.1,21.6 -499,46.1 -500,46.1 -511.7,21.6 		"/>
		<path id="形状_00000164477899661436289720000010900564472803423118_" class="st3" d="M-474.7,45.5c-0.5-0.2-0.9-0.6-1.2-1
			c-0.3-0.4-0.5-0.9-0.5-1.5c-0.4,0.3-0.9,0.7-1.3,1s-0.9,0.7-1.4,0.9c-0.5,0.2-1,0.5-1.6,0.7s-1.3,0.3-2.1,0.3
			c-0.7,0-1.4-0.1-2-0.4c-0.6-0.2-1.1-0.6-1.5-1c-0.4-0.4-0.7-0.9-0.9-1.5c-0.2-0.6-0.3-1.2-0.3-1.8c0-0.8,0.2-1.5,0.5-2.1
			c0.3-0.6,0.7-1.2,1.3-1.7c0.5-0.5,1.2-0.9,1.9-1.3c0.7-0.4,1.5-0.7,2.3-1c0.8-0.3,1.7-0.6,2.5-0.8c0.9-0.2,1.7-0.5,2.5-0.7v-1.2
			c0-0.8-0.1-1.6-0.2-2.1c-0.1-0.6-0.3-1-0.6-1.4c-0.3-0.4-0.6-0.6-1-0.8c-0.4-0.2-0.9-0.2-1.4-0.2s-1,0.1-1.4,0.3
			c-0.4,0.2-0.8,0.5-1.1,0.8c-0.3,0.3-0.6,0.7-0.8,1.2c-0.2,0.5-0.4,1-0.4,1.5h-3.3c0.1-0.8,0.4-1.5,0.8-2.1c0.4-0.6,1-1.2,1.7-1.6
			c0.7-0.4,1.5-0.8,2.3-1c0.9-0.2,1.8-0.3,2.7-0.3c1.2,0,2.2,0.1,3,0.4c0.8,0.2,1.5,0.6,2,1s0.8,0.9,1.1,1.5c0.2,0.6,0.3,1.3,0.3,2
			V43c0,0.6,0.2,1.1,0.5,1.5c0.3,0.4,0.7,0.8,1.2,1C-471.1,45.5-474.7,45.5-474.7,45.5z M-476.4,34.8c-0.5,0.2-1.1,0.4-1.6,0.6
			c-0.6,0.2-1.1,0.5-1.7,0.7c-0.5,0.3-1.1,0.6-1.6,0.9s-0.9,0.7-1.3,1c-0.4,0.4-0.7,0.7-0.9,1.1c-0.2,0.4-0.3,0.8-0.3,1.2
			c0,0.5,0.1,0.9,0.3,1.3c0.2,0.4,0.4,0.8,0.7,1.1c0.3,0.3,0.6,0.5,1,0.7c0.4,0.2,0.7,0.3,1.1,0.3c0.4,0,0.8-0.1,1.2-0.2
			c0.4-0.1,0.7-0.3,1.1-0.4c0.3-0.2,0.7-0.4,1-0.6c0.3-0.2,0.7-0.5,1.1-0.8L-476.4,34.8L-476.4,34.8z"/>
		<polygon id="路径_00000134218465626623333020000008075528344906709935_" class="st3" points="-462.4,45.5 -466.1,45.5 
			-466.1,18.6 -463.5,17.6 -462.4,17.6 		"/>
		<path id="形状_00000020376432602017965830000007345763526053022646_" class="st3" d="M-454.9,27.7l2.6-1h1.1v18.8h-3.6
			L-454.9,27.7L-454.9,27.7z M-455.2,19.9c0-0.3,0.1-0.6,0.2-0.8s0.3-0.5,0.5-0.7c0.2-0.2,0.4-0.3,0.7-0.5c0.3-0.2,0.5-0.2,0.8-0.2
			s0.6,0.1,0.8,0.2c0.2,0.1,0.5,0.3,0.7,0.5c0.2,0.2,0.3,0.4,0.5,0.7s0.2,0.5,0.2,0.8c0,0.3-0.1,0.6-0.2,0.8
			c-0.1,0.2-0.3,0.5-0.5,0.7c-0.2,0.2-0.4,0.3-0.7,0.5c-0.3,0.2-0.5,0.2-0.8,0.2s-0.7-0.1-0.9-0.2c-0.2-0.1-0.5-0.3-0.7-0.5
			c-0.2-0.2-0.3-0.4-0.5-0.7C-455.3,20.4-455.2,20.2-455.2,19.9z"/>
		<path id="形状_00000098932432132428785080000014862620085550918019_" class="st3" d="M-432.4,45.5c-0.5-0.2-0.9-0.6-1.2-1
			c-0.3-0.4-0.5-0.9-0.5-1.5c-0.4,0.3-0.9,0.7-1.3,1s-0.9,0.7-1.4,0.9c-0.5,0.2-1,0.5-1.6,0.7s-1.3,0.3-2.1,0.3
			c-0.7,0-1.4-0.1-2-0.4c-0.6-0.2-1.1-0.6-1.5-1c-0.4-0.4-0.7-0.9-0.9-1.5c-0.2-0.6-0.3-1.2-0.3-1.8c0-0.8,0.2-1.5,0.5-2.1
			c0.3-0.6,0.7-1.2,1.3-1.7c0.5-0.5,1.2-0.9,1.9-1.3c0.7-0.4,1.5-0.7,2.3-1c0.8-0.3,1.7-0.6,2.5-0.8c0.8-0.2,1.7-0.5,2.5-0.7v-1.2
			c0-0.8-0.1-1.6-0.2-2.1c-0.1-0.6-0.3-1-0.6-1.4c-0.3-0.4-0.6-0.6-1-0.8c-0.4-0.2-0.9-0.2-1.4-0.2s-1,0.1-1.4,0.3
			c-0.4,0.2-0.8,0.5-1.1,0.8c-0.3,0.3-0.6,0.7-0.8,1.2c-0.2,0.5-0.4,1-0.4,1.5h-3.4c0.1-0.8,0.4-1.5,0.8-2.1c0.4-0.6,1-1.2,1.7-1.6
			c0.7-0.4,1.5-0.8,2.3-1c0.9-0.2,1.8-0.3,2.7-0.3c1.2,0,2.2,0.1,3,0.4c0.8,0.2,1.5,0.6,2,1s0.8,0.9,1.1,1.5c0.2,0.6,0.3,1.3,0.3,2
			V43c0,0.6,0.2,1.1,0.5,1.5c0.3,0.4,0.7,0.8,1.2,1C-428.9,45.5-432.4,45.5-432.4,45.5z M-434.1,34.8c-0.5,0.2-1.1,0.4-1.6,0.6
			c-0.6,0.2-1.1,0.5-1.7,0.7s-1.1,0.6-1.6,0.9s-0.9,0.7-1.3,1c-0.4,0.4-0.7,0.7-0.9,1.1c-0.2,0.4-0.3,0.8-0.3,1.2
			c0,0.5,0.1,0.9,0.3,1.3c0.2,0.4,0.4,0.8,0.7,1.1c0.3,0.3,0.6,0.5,1,0.7s0.7,0.3,1.1,0.3c0.4,0,0.8-0.1,1.2-0.2
			c0.4-0.1,0.7-0.3,1.1-0.4c0.3-0.2,0.7-0.4,1-0.6c0.3-0.2,0.7-0.5,1.1-0.8v-6.9H-434.1z"/>
		<path id="路径_00000156585381202693877060000011292972988632562333_" class="st3" d="M-421.1,26.7h1v3.7
			c1.1-1.3,2.3-2.2,3.5-2.8c1.2-0.6,2.4-0.9,3.7-0.9c0.7,0,1.3,0.1,1.8,0.4s1.1,0.7,1.5,1.2s0.8,1.1,1,1.8c0.2,0.7,0.4,1.4,0.4,2.2
			v13.3h-3.7V32.9c0-0.6-0.1-1.2-0.2-1.6c-0.1-0.4-0.3-0.9-0.6-1.2c-0.3-0.3-0.6-0.6-0.9-0.7c-0.4-0.2-0.7-0.2-1.2-0.2
			c-0.4,0-0.8,0.1-1.2,0.2c-0.4,0.1-0.9,0.3-1.3,0.6c-0.4,0.3-0.9,0.5-1.3,0.8c-0.4,0.3-0.9,0.7-1.3,1.1v13.7h-3.7V27.7L-421.1,26.7
			z"/>
		<path id="路径_00000132779863702723996950000002054624754368241793_" class="st3" d="M-397.3,20.7h1V27h4.1v1.6h-4.1v13
			c0,0.3,0.1,0.5,0.2,0.8s0.2,0.5,0.4,0.6c0.2,0.1,0.4,0.3,0.6,0.4c0.2,0.1,0.5,0.2,0.8,0.2c0.4,0,0.8-0.1,1.1-0.3
			c0.3-0.2,0.6-0.5,0.9-0.8l0.9,0.6c-0.5,0.9-1.2,1.5-2,2c-0.8,0.5-1.8,0.7-3,0.7c-0.6,0-1.2-0.1-1.6-0.3c-0.4-0.2-0.8-0.5-1.1-0.9
			c-0.3-0.4-0.5-0.8-0.7-1.4c-0.2-0.6-0.2-1.1-0.2-1.7V28.6h-3.2v-0.7l3.2-0.9v-5.2L-397.3,20.7z"/>
		<path id="路径_00000034785019808701415070000005440369069804403389_" class="st3" d="M-381.9,33.6c0,1.7,0.3,3.2,0.8,4.5
			s1.2,2.5,2.1,3.4c0.9,0.9,1.9,1.6,3.1,2.1s2.5,0.7,3.9,0.7c0.8,0,1.7-0.2,2.4-0.5c0.8-0.3,1.5-0.7,2.2-1.3
			c0.7-0.6,1.3-1.1,1.8-1.8c0.5-0.7,1-1.3,1.3-2l1.7,1.1c-0.5,0.8-1.1,1.6-1.8,2.3c-0.7,0.7-1.5,1.4-2.3,2c-0.8,0.6-1.9,1-3,1.4
			c-1.1,0.3-2.4,0.5-3.7,0.5c-2,0-3.8-0.3-5.4-1c-1.6-0.7-3-1.6-4.2-2.7c-1.2-1.1-2.1-2.5-2.7-4s-0.9-3.1-0.9-4.8
			c0-1.1,0.1-2.2,0.4-3.3c0.3-1.1,0.7-2.1,1.3-3c0.5-0.9,1.2-1.8,2-2.6c0.8-0.8,1.7-1.4,2.7-2s2.1-1,3.3-1.3
			c1.2-0.3,2.4-0.5,3.8-0.5c1.3,0,2.5,0.2,3.5,0.5c1.1,0.3,2.1,0.8,2.9,1.4s1.7,1.2,2.4,2c0.7,0.7,1.3,1.5,1.8,2.3l-1.8,1.2
			c-1-1.9-2.1-3.4-3.4-4.3c-1.2-0.9-2.7-1.3-4.3-1.3c-1.4,0-2.7,0.3-3.9,0.8c-1.2,0.5-2.3,1.2-3.2,2.2c-0.9,0.9-1.6,2.1-2.1,3.4
			C-381.7,30.4-381.9,32-381.9,33.6z"/>
		<path id="形状_00000096737610508541520380000006993979114241330087_" class="st3" d="M-344.9,45.5c-0.5-0.2-0.9-0.6-1.2-1
			c-0.3-0.4-0.5-0.9-0.5-1.5c-0.4,0.3-0.9,0.7-1.3,1c-0.4,0.3-0.9,0.7-1.4,0.9c-0.5,0.2-1,0.5-1.6,0.7s-1.3,0.3-2.1,0.3
			c-0.7,0-1.4-0.1-2-0.4c-0.6-0.2-1.1-0.6-1.5-1c-0.4-0.4-0.7-0.9-0.9-1.5c-0.2-0.6-0.3-1.2-0.3-1.8c0-0.8,0.2-1.5,0.5-2.1
			c0.3-0.6,0.7-1.2,1.3-1.7c0.5-0.5,1.2-0.9,1.9-1.3c0.7-0.4,1.5-0.7,2.3-1c0.8-0.3,1.7-0.6,2.5-0.8c0.8-0.2,1.7-0.5,2.5-0.7v-1.2
			c0-0.8-0.1-1.6-0.2-2.1c-0.1-0.6-0.3-1-0.6-1.4c-0.3-0.4-0.6-0.6-1-0.8c-0.4-0.2-0.9-0.2-1.4-0.2s-1,0.1-1.4,0.3
			c-0.4,0.2-0.8,0.5-1.1,0.8c-0.3,0.3-0.6,0.7-0.8,1.2c-0.2,0.5-0.4,1-0.4,1.5h-3.4c0.1-0.8,0.4-1.5,0.8-2.1c0.4-0.6,1-1.2,1.7-1.6
			c0.7-0.4,1.5-0.8,2.3-1c0.9-0.2,1.8-0.3,2.7-0.3c1.2,0,2.2,0.1,3,0.4c0.8,0.2,1.5,0.6,2,1s0.8,0.9,1.1,1.5c0.2,0.6,0.3,1.3,0.3,2
			V43c0,0.6,0.2,1.1,0.5,1.5c0.3,0.4,0.7,0.8,1.2,1C-341.4,45.5-344.9,45.5-344.9,45.5z M-346.6,34.8c-0.5,0.2-1.1,0.4-1.6,0.6
			c-0.6,0.2-1.1,0.5-1.7,0.7c-0.6,0.2-1.1,0.6-1.6,0.9s-0.9,0.7-1.3,1c-0.4,0.4-0.7,0.7-0.9,1.1c-0.2,0.4-0.3,0.8-0.3,1.2
			c0,0.5,0.1,0.9,0.3,1.3c0.2,0.4,0.4,0.8,0.7,1.1c0.3,0.3,0.6,0.5,1,0.7s0.7,0.3,1.1,0.3c0.4,0,0.8-0.1,1.2-0.2
			c0.4-0.1,0.7-0.3,1.1-0.4c0.3-0.2,0.7-0.4,1-0.6c0.3-0.2,0.7-0.5,1.1-0.8v-6.9H-346.6z"/>
		<path id="路径_00000082333018519233601070000010140116496841528510_" class="st3" d="M-332.4,20.7h1V27h4.1v1.6h-4.1v13
			c0,0.3,0.1,0.5,0.2,0.8c0.1,0.2,0.2,0.5,0.4,0.6c0.2,0.2,0.4,0.3,0.6,0.4c0.2,0.1,0.5,0.2,0.8,0.2c0.4,0,0.8-0.1,1.1-0.3
			c0.3-0.2,0.6-0.5,0.9-0.8l0.9,0.6c-0.5,0.9-1.2,1.5-2,2c-0.8,0.5-1.8,0.7-3,0.7c-0.6,0-1.2-0.1-1.6-0.3c-0.5-0.2-0.8-0.5-1.1-0.9
			c-0.3-0.4-0.5-0.8-0.7-1.4c-0.2-0.6-0.2-1.1-0.2-1.7V28.6h-3.2v-0.7l3.2-0.9v-5.2L-332.4,20.7z"/>
		<polygon id="路径_00000112596931649797055690000006164213919343283135_" class="st3" points="-287.1,21.6 -287.1,23.1 
			-295.8,23.1 -295.8,45.5 -299.8,45.5 -299.8,23.1 -308.5,23.1 -308.5,21.6 		"/>
		<path id="形状_00000070113287546664006560000004194777729256105372_" class="st3" d="M-278.3,45.9c-1.3,0-2.4-0.2-3.5-0.7
			s-2.1-1.1-2.9-1.9s-1.5-1.8-1.9-2.8c-0.5-1.1-0.7-2.2-0.7-3.5c0-1.5,0.2-2.9,0.7-4.1s1-2.3,1.8-3.3c0.8-1,1.7-1.6,2.9-2.1
			c1.1-0.5,2.4-0.8,3.7-0.8c1.2,0,2.3,0.2,3.3,0.6c1,0.4,1.9,1,2.6,1.7c0.7,0.7,1.3,1.5,1.7,2.5c0.4,0.9,0.6,1.9,0.6,2.9h-13.8
			c0,1.2,0.2,2.4,0.5,3.5c0.3,1.1,0.8,2,1.3,2.7s1.3,1.4,2.1,1.8c0.8,0.4,1.7,0.7,2.6,0.7c0.8,0,1.6-0.1,2.3-0.4
			c0.7-0.3,1.4-0.6,2-1c0.6-0.4,1.1-0.9,1.5-1.4s0.7-1.1,0.9-1.7l1.1,0.5c-0.3,1-0.7,1.8-1.3,2.7c-0.6,0.8-1.3,1.6-2.1,2.2
			c-0.8,0.6-1.6,1.1-2.6,1.5C-276.4,45.7-277.4,45.9-278.3,45.9z M-274.7,33c0-0.7-0.1-1.3-0.4-2c-0.2-0.6-0.6-1.1-1-1.6
			s-0.9-0.8-1.5-1c-0.6-0.2-1.2-0.4-1.9-0.4c-0.6,0-1.1,0.1-1.6,0.4s-1,0.6-1.4,1s-0.7,1-1,1.6c-0.3,0.6-0.4,1.3-0.5,2H-274.7z"/>
		<path id="路径_00000142138763209168500600000009945824989378547593_" class="st3" d="M-251.5,32.2c-0.1-0.5-0.3-1-0.5-1.5
			s-0.5-0.9-0.9-1.3c-0.4-0.4-0.8-0.7-1.3-1c-0.5-0.3-1-0.4-1.7-0.4c-0.8,0-1.6,0.2-2.2,0.5c-0.7,0.3-1.2,0.8-1.7,1.4
			c-0.5,0.6-0.8,1.3-1,2c-0.2,0.8-0.4,1.6-0.4,2.5c0,1.2,0.2,2.3,0.5,3.4c0.3,1.1,0.7,2,1.3,2.8s1.2,1.4,2,1.9
			c0.8,0.5,1.7,0.7,2.6,0.7s1.6-0.1,2.2-0.4s1.2-0.6,1.6-1.1c0.5-0.5,0.9-1,1.2-1.6c0.3-0.6,0.6-1.2,0.9-1.9l1.2,0.4
			c-0.3,1.2-0.7,2.2-1.3,3.1c-0.5,0.9-1.2,1.7-1.9,2.3c-0.7,0.6-1.5,1.1-2.4,1.4s-1.9,0.5-2.9,0.5c-1.2,0-2.4-0.2-3.4-0.7
			c-1.1-0.5-2-1.1-2.8-2c-0.8-0.8-1.4-1.8-1.9-2.9c-0.5-1.1-0.7-2.3-0.7-3.6c0-0.9,0.1-1.8,0.3-2.7c0.2-0.9,0.6-1.7,1-2.4
			c0.4-0.7,0.9-1.4,1.5-2s1.2-1.1,1.9-1.6c0.7-0.4,1.5-0.8,2.3-1c0.8-0.2,1.7-0.4,2.5-0.4c0.7,0,1.4,0.1,2.1,0.3
			c0.7,0.2,1.3,0.4,1.9,0.7c0.6,0.3,1.1,0.7,1.5,1.1c0.4,0.4,0.8,1,1,1.5L-251.5,32.2z"/>
		<path id="路径_00000083801959711191081810000000520634669060523149_" class="st3" d="M-238.1,30.4c1.1-1.3,2.3-2.2,3.5-2.8
			s2.4-0.9,3.7-0.9c0.7,0,1.3,0.1,1.8,0.4s1.1,0.7,1.5,1.2s0.8,1.1,1,1.8c0.2,0.7,0.4,1.4,0.4,2.2v13.3h-3.7V32.9
			c0-1.2-0.3-2.2-0.8-2.8c-0.6-0.6-1.3-0.9-2.1-0.9c-0.4,0-0.8,0.1-1.2,0.2c-0.4,0.1-0.9,0.3-1.3,0.6c-0.4,0.2-0.9,0.5-1.3,0.8
			c-0.4,0.3-0.9,0.7-1.3,1.1v13.7h-3.7v-27l2.6-1h1v12.8H-238.1z"/>
	</g>
</g>
</svg>
